<svg version="1.1" id="Layer_1" xmlns="http://www.w3.org/2000/svg" xmlns:xlink="http://www.w3.org/1999/xlink" x="0px" y="0px"
	 width="100%" viewBox="0 0 1885 2000" enable-background="new 0 0 1885 2000" xml:space="preserve">
<path fill="#39A5CC" opacity="1.000000" stroke="none" 
	d="
M306.000000,1.000000 
	C757.032715,1.000000 1208.065430,1.000000 1659.798950,1.312386 
	C1662.473145,1.837658 1664.497437,1.838019 1666.411987,2.296375 
	C1685.252441,6.806722 1702.108643,14.941017 1716.211426,28.608295 
	C1736.721558,48.484882 1747.809326,72.378159 1747.966797,101.038612 
	C1748.119629,128.865921 1747.986328,156.694748 1748.003174,184.522888 
	C1748.028931,227.347107 1748.075684,270.171326 1747.904297,313.352356 
	C1747.510742,316.182770 1747.161621,318.656586 1747.165405,321.129883 
	C1747.361694,450.275513 1747.737915,579.421021 1747.764648,708.566711 
	C1747.786865,815.380859 1747.315430,922.195129 1747.217163,1029.009399 
	C1747.103638,1152.332275 1747.160278,1275.655273 1747.139526,1398.978271 
	C1747.138306,1406.147461 1747.123535,1406.142944 1740.016113,1406.168335 
	C1678.530518,1406.388306 1617.045044,1406.793457 1555.559448,1406.801880 
	C1141.927368,1406.858643 728.295288,1406.831543 314.663208,1406.829712 
	C311.830200,1406.829712 308.997192,1406.802734 306.146851,1406.339844 
	C306.112610,1401.224854 306.080994,1396.558716 306.080811,1391.892456 
	C306.067200,1021.754272 306.058319,651.616150 306.042938,281.477966 
	C306.039062,187.985306 306.014893,94.492653 306.000000,1.000000 
M993.335571,1112.224365 
	C993.890381,1112.149048 994.445190,1112.073608 995.937561,1112.005981 
	C1010.958435,1112.005005 1025.979370,1112.004028 1041.362061,1112.267090 
	C1041.909424,1112.156982 1042.456787,1112.046753 1043.917725,1111.934692 
	C1047.857422,1111.624634 1051.794678,1111.280518 1055.737061,1111.010132 
	C1080.188965,1109.333374 1104.257812,1105.279297 1127.909180,1098.924316 
	C1175.945679,1086.017578 1219.867798,1065.169189 1256.026001,1030.250366 
	C1294.149658,993.433655 1315.752930,949.009705 1315.974854,895.254456 
	C1316.051880,876.593872 1316.019165,857.931458 1315.847656,839.271545 
	C1315.518433,803.480896 1303.402222,772.079346 1279.888428,745.195679 
	C1252.593384,713.988831 1217.603760,695.106018 1178.531006,683.054077 
	C1169.388306,680.234070 1160.060791,678.013855 1149.717285,675.220398 
	C1152.217773,674.389893 1153.706787,673.834229 1155.230225,673.398682 
	C1174.713867,667.828735 1193.451538,660.366028 1210.601562,649.551514 
	C1252.295410,623.260132 1283.608154,589.554138 1285.742188,537.066406 
	C1286.813232,510.726929 1287.604736,484.225464 1282.293701,458.102386 
	C1278.570923,439.791901 1271.588867,422.744965 1261.632690,406.939758 
	C1242.870117,377.154572 1217.043701,354.992218 1186.480713,338.161560 
	C1140.470581,312.824341 1090.534790,301.955780 1038.585327,298.946930 
	C1003.767639,296.930267 969.270264,299.437469 934.944214,305.824310 
	C897.840576,312.727936 862.894836,325.181885 830.794495,344.980499 
	C774.741821,379.552216 738.162231,428.343933 724.607544,493.372833 
	C722.558777,503.202209 721.831421,513.307068 720.406128,523.930847 
	C723.761536,523.930847 725.889709,523.932861 728.017883,523.930542 
	C783.179199,523.870544 838.340576,523.808655 893.501892,523.750977 
	C902.806152,523.741272 902.804565,523.749084 904.345154,514.822754 
	C904.571777,513.510254 904.800659,512.197571 905.065613,510.892426 
	C910.825134,482.528839 924.196350,458.912933 950.769348,445.779266 
	C985.644470,428.542389 1021.867798,429.287567 1056.930054,444.789581 
	C1081.874756,455.818390 1093.650269,477.116791 1094.002319,504.472168 
	C1094.070923,509.804138 1094.136719,515.138123 1094.069824,520.469482 
	C1093.933228,531.350220 1094.771118,542.376038 1093.302734,553.080750 
	C1089.798950,578.623291 1074.695190,595.849365 1051.865723,606.876221 
	C1033.182739,615.900269 1013.045166,618.879761 992.761475,619.775940 
	C971.811523,620.701477 950.781189,619.794128 929.785889,619.734375 
	C927.523560,619.727966 925.260376,620.026245 922.941528,620.187134 
	C922.941528,663.644043 922.941528,706.523376 922.941528,749.919617 
	C926.528259,749.919617 929.499329,749.908081 932.470337,749.921509 
	C951.297913,750.006592 970.125427,750.097229 989.441528,750.777710 
	C990.973389,750.803772 992.505310,750.829773 994.965149,750.950684 
	C1022.539795,750.496155 1048.986816,755.494507 1073.768433,767.857056 
	C1101.229858,781.556458 1118.177490,803.526306 1121.518677,834.148865 
	C1123.312134,850.587524 1121.959229,867.369385 1121.695068,884.497070 
	C1121.518677,885.069885 1121.342285,885.642700 1121.070312,887.101807 
	C1120.502441,909.726990 1112.544678,929.389893 1096.527832,945.353149 
	C1077.949951,963.868530 1054.477051,971.406006 1028.611084,973.647095 
	C1028.074097,973.765320 1027.536987,973.883545 1026.120361,974.088196 
	C1010.271912,975.441223 994.522095,974.723999 978.853638,971.959961 
	C933.504150,963.960083 902.477356,933.524902 895.218079,889.442383 
	C894.428467,884.647034 892.865845,883.291809 888.031921,883.306519 
	C831.061279,883.480042 774.089844,883.408691 717.118652,883.420410 
	C715.538086,883.420776 713.957581,883.628540 711.951172,883.769470 
	C712.656555,888.742371 713.196350,893.181580 713.924744,897.589600 
	C728.608826,986.454590 776.459412,1049.502930 859.937744,1084.585205 
	C893.774475,1098.805298 929.275452,1106.439697 965.733521,1109.836670 
	C974.806519,1110.681885 983.905945,1111.243286 993.335571,1112.224365 
z"/>
<path fill="#37697B" opacity="1.000000" stroke="none" 
	d="
M306.164185,1406.788452 
	C308.997192,1406.802734 311.830200,1406.829712 314.663208,1406.829712 
	C728.295288,1406.831543 1141.927368,1406.858643 1555.559448,1406.801880 
	C1617.045044,1406.793457 1678.530518,1406.388306 1740.016113,1406.168335 
	C1747.123535,1406.142944 1747.138306,1406.147461 1747.139526,1398.978271 
	C1747.160278,1275.655273 1747.103638,1152.332275 1747.217163,1029.009399 
	C1747.315430,922.195129 1747.786865,815.380859 1747.764648,708.566711 
	C1747.737915,579.421021 1747.361694,450.275513 1747.165405,321.129883 
	C1747.161621,318.656586 1747.510742,316.182770 1748.364990,313.351440 
	C1794.689819,312.995758 1840.344849,312.997894 1886.000000,313.000000 
	C1886.000000,875.604919 1886.000000,1438.209839 1886.000000,2000.907471 
	C1257.666626,2000.907471 629.333313,2000.907471 1.000000,2000.907471 
	C1.000000,1864.573853 1.000000,1728.255493 1.353616,1591.412598 
	C14.256760,1583.523926 26.860010,1576.249756 39.344894,1568.777954 
	C67.173149,1552.123779 95.018448,1535.495728 122.712532,1518.620239 
	C147.056992,1503.785889 171.110611,1488.474121 195.462036,1473.651367 
	C232.285568,1451.236938 269.256104,1429.063965 306.164185,1406.788452 
M1113.976318,1546.214844 
	C1112.648804,1546.126709 1111.321289,1546.038574 1109.105103,1545.871216 
	C1103.613770,1545.693848 1098.122681,1545.376343 1092.630981,1545.363403 
	C1068.654541,1545.307251 1044.676880,1545.458740 1020.702576,1545.227173 
	C1016.509583,1545.186768 1015.499329,1547.039062 1014.521118,1550.469238 
	C987.496582,1645.233765 960.375305,1739.970703 933.280701,1834.715454 
	C932.808411,1836.366821 932.467834,1838.055908 931.952820,1840.197021 
	C955.803955,1840.197021 978.941345,1840.262329 1002.075745,1840.027588 
	C1003.404480,1840.014160 1005.490173,1837.759277 1005.904358,1836.197510 
	C1010.801331,1817.733643 1015.535400,1799.224854 1020.083130,1780.671631 
	C1020.985474,1776.990112 1022.448242,1775.665527 1026.411987,1775.702393 
	C1049.232910,1775.915405 1072.056641,1775.780273 1094.879517,1775.826538 
	C1099.850830,1775.836670 1106.187378,1774.309570 1109.408813,1776.759644 
	C1112.636353,1779.214233 1112.856445,1785.729370 1114.215088,1790.515625 
	C1118.879395,1806.947144 1123.464966,1823.401001 1128.093994,1839.894043 
	C1152.949463,1839.894043 1177.508789,1839.894043 1202.457397,1839.894043 
	C1201.875977,1837.423950 1201.486694,1835.302856 1200.875488,1833.247559 
	C1196.149292,1817.351318 1191.397217,1801.462769 1186.620483,1785.581787 
	C1175.469238,1748.507202 1164.363037,1711.418701 1153.115845,1674.373169 
	C1144.956421,1647.497681 1136.560547,1620.694336 1128.348022,1593.834839 
	C1123.558350,1578.169434 1118.922119,1562.456909 1113.976318,1546.214844 
M654.216614,1647.716431 
	C656.410828,1656.052368 658.642944,1664.378418 660.792664,1672.725830 
	C669.250366,1705.568115 677.568909,1738.446777 686.163757,1771.253052 
	C691.888916,1793.106201 698.083679,1814.836304 703.834778,1836.682861 
	C704.710449,1840.009277 706.488586,1840.239746 709.201172,1840.231812 
	C729.365173,1840.172974 749.530212,1840.114746 769.692993,1840.281494 
	C773.179260,1840.310181 774.619019,1839.236816 775.487732,1835.846802 
	C788.631958,1784.552368 801.930481,1733.297607 815.136597,1682.019043 
	C817.506104,1672.818359 819.623291,1663.552612 821.856995,1654.316772 
	C822.314026,1654.335205 822.771057,1654.353516 823.228027,1654.371826 
	C824.850281,1716.094360 823.227478,1777.859375 824.191650,1839.891968 
	C847.424011,1839.891968 870.304382,1839.891968 893.484497,1839.891968 
	C893.484497,1741.699951 893.484497,1643.816528 893.484497,1545.594360 
	C891.498047,1545.497925 889.874207,1545.351196 888.250244,1545.350342 
	C861.920105,1545.335938 835.589355,1545.426147 809.260437,1545.246826 
	C805.355957,1545.220093 803.877136,1546.437744 802.891296,1550.195435 
	C785.651306,1615.907471 768.259399,1681.579468 750.884399,1747.255981 
	C747.923096,1758.449219 744.886780,1769.622681 741.488586,1782.282593 
	C721.426758,1702.334839 701.740845,1623.885254 682.132935,1545.746582 
	C650.795959,1545.746582 620.221436,1545.746582 589.651367,1545.746582 
	C589.651367,1644.044312 589.651367,1741.934814 589.651367,1839.791992 
	C610.752869,1839.791992 631.470154,1839.791992 652.896423,1839.791992 
	C652.896423,1775.253662 652.896423,1711.122437 653.462830,1646.895996 
	C653.653015,1646.918335 653.843140,1646.940552 654.216614,1647.716431 
M1275.235474,1614.308838 
	C1288.268066,1636.017090 1301.206787,1657.782837 1314.425903,1679.376953 
	C1316.620972,1682.962646 1316.788086,1685.459839 1314.562256,1689.156738 
	C1285.435669,1737.534424 1256.497925,1786.025879 1227.519775,1834.493042 
	C1226.542480,1836.127808 1225.640991,1837.807983 1224.505859,1839.818237 
	C1225.916626,1840.013672 1226.554443,1840.179077 1227.192383,1840.179443 
	C1252.021118,1840.195557 1276.850098,1840.130249 1301.677979,1840.280151 
	C1304.919922,1840.299683 1305.912598,1838.507446 1307.100708,1836.209595 
	C1324.769897,1802.035645 1342.477295,1767.881836 1360.192749,1733.731934 
	C1360.770996,1732.617310 1361.529785,1731.596436 1362.625488,1729.867798 
	C1364.656494,1733.317261 1366.480835,1736.082642 1367.980713,1739.014160 
	C1384.517700,1771.335449 1401.039551,1803.664795 1417.443237,1836.053955 
	C1418.909058,1838.947876 1420.560303,1840.149414 1423.898926,1840.135376 
	C1449.391602,1840.028320 1474.885132,1840.122559 1500.378418,1840.131714 
	C1500.803711,1840.131836 1501.228882,1839.848267 1502.136963,1839.525391 
	C1500.749390,1837.067017 1499.477783,1834.781616 1498.176514,1832.513306 
	C1469.414551,1782.378906 1440.673950,1732.232178 1411.822266,1682.149414 
	C1410.114014,1679.184326 1410.029175,1677.089722 1411.927490,1674.100464 
	C1437.645142,1633.599487 1463.212280,1593.002808 1488.811279,1552.426636 
	C1490.104492,1550.377197 1491.349609,1548.297363 1493.165039,1545.338623 
	C1490.324219,1545.338623 1488.557373,1545.338501 1486.790405,1545.338501 
	C1465.461060,1545.338867 1444.126587,1545.594116 1422.805542,1545.171021 
	C1417.052490,1545.056885 1414.337524,1547.084961 1411.750610,1551.912964 
	C1397.356323,1578.778076 1382.616089,1605.458008 1367.974365,1632.190308 
	C1366.811401,1634.313477 1365.497803,1636.354126 1363.877563,1639.062744 
	C1362.548340,1636.641479 1361.665039,1635.080811 1360.825928,1633.496826 
	C1346.013550,1605.533447 1331.165283,1577.588745 1316.458496,1549.569946 
	C1314.888184,1546.578125 1313.217651,1545.218262 1309.619751,1545.246460 
	C1286.292236,1545.429688 1262.962524,1545.335938 1239.633545,1545.351074 
	C1238.085571,1545.352051 1236.537598,1545.501465 1234.054565,1545.630371 
	C1248.019531,1568.902588 1261.451660,1591.286987 1275.235474,1614.308838 
z"/>
<path fill="#7FC5DE" opacity="1.000000" stroke="none" 
	d="
M306.146851,1406.339844 
	C269.256104,1429.063965 232.285568,1451.236938 195.462036,1473.651367 
	C171.110611,1488.474121 147.056992,1503.785889 122.712532,1518.620239 
	C95.018448,1535.495728 67.173149,1552.123779 39.344894,1568.777954 
	C26.860010,1576.249756 14.256760,1583.523926 1.353616,1590.943970 
	C1.000000,1123.312378 1.000000,655.624878 1.316296,187.293152 
	C3.218348,184.744156 4.462778,182.310425 6.450123,181.027878 
	C14.220661,176.013123 22.223808,171.358551 30.144583,166.576889 
	C59.147747,149.068024 88.123451,131.513428 117.166824,114.071503 
	C136.993393,102.164703 156.967270,90.502998 176.783157,78.578651 
	C211.891327,57.452057 246.947357,36.238628 281.982361,14.990895 
	C289.415863,10.482704 296.665588,5.671564 304.000000,1.000000 
	C304.444458,1.000000 304.888885,1.000000 305.666687,1.000000 
	C306.014893,94.492653 306.039062,187.985306 306.042938,281.477966 
	C306.058319,651.616150 306.067200,1021.754272 306.080811,1391.892456 
	C306.080994,1396.558716 306.112610,1401.224854 306.146851,1406.339844 
z"/>
<path fill="#47704C" opacity="1.000000" stroke="none" 
	d="
M1886.000000,312.531342 
	C1840.344849,312.997894 1794.689819,312.995758 1748.573975,312.994598 
	C1748.075684,270.171326 1748.028931,227.347107 1748.003174,184.522888 
	C1747.986328,156.694748 1748.119629,128.865921 1747.966797,101.038612 
	C1747.809326,72.378159 1736.721558,48.484882 1716.211426,28.608295 
	C1702.108643,14.941017 1685.252441,6.806722 1666.411987,2.296375 
	C1664.497437,1.838019 1662.473145,1.837658 1660.249878,1.312386 
	C1735.272095,1.000000 1810.544067,1.000000 1886.000000,1.000000 
	C1886.000000,104.687492 1886.000000,208.375092 1886.000000,312.531342 
z"/>
<path fill="#47704C" opacity="1.000000" stroke="none" 
	d="
M303.531342,1.000000 
	C296.665588,5.671564 289.415863,10.482704 281.982361,14.990895 
	C246.947357,36.238628 211.891327,57.452057 176.783157,78.578651 
	C156.967270,90.502998 136.993393,102.164703 117.166824,114.071503 
	C88.123451,131.513428 59.147747,149.068024 30.144583,166.576889 
	C22.223808,171.358551 14.220661,176.013123 6.450123,181.027878 
	C4.462778,182.310425 3.218348,184.744156 1.316296,186.824493 
	C1.000000,125.055504 1.000000,63.111004 1.000000,1.000000 
	C101.687500,1.000000 202.375092,1.000000 303.531342,1.000000 
z"/>
<path fill="#FFFFFF" opacity="1.000000" stroke="none" 
	d="
M1028.987061,973.866821 
	C1054.477051,971.406006 1077.949951,963.868530 1096.527832,945.353149 
	C1112.544678,929.389893 1120.502441,909.726990 1121.343506,886.587036 
	C1121.753174,885.380310 1121.889771,884.688354 1122.026123,883.996399 
	C1121.959229,867.369385 1123.312134,850.587524 1121.518677,834.148865 
	C1118.177490,803.526306 1101.229858,781.556458 1073.768433,767.857056 
	C1048.986816,755.494507 1022.539795,750.496155 994.333374,750.617126 
	C992.118774,750.251038 990.535889,750.218506 988.953003,750.186035 
	C970.125427,750.097229 951.297913,750.006592 932.470337,749.921509 
	C929.499329,749.908081 926.528259,749.919617 922.941528,749.919617 
	C922.941528,706.523376 922.941528,663.644043 922.941528,620.187134 
	C925.260376,620.026245 927.523560,619.727966 929.785889,619.734375 
	C950.781189,619.794128 971.811523,620.701477 992.761475,619.775940 
	C1013.045166,618.879761 1033.182739,615.900269 1051.865723,606.876221 
	C1074.695190,595.849365 1089.798950,578.623291 1093.302734,553.080750 
	C1094.771118,542.376038 1093.933228,531.350220 1094.069824,520.469482 
	C1094.136719,515.138123 1094.070923,509.804138 1094.002319,504.472168 
	C1093.650269,477.116791 1081.874756,455.818390 1056.930054,444.789581 
	C1021.867798,429.287567 985.644470,428.542389 950.769348,445.779266 
	C924.196350,458.912933 910.825134,482.528839 905.065613,510.892426 
	C904.800659,512.197571 904.571777,513.510254 904.345154,514.822754 
	C902.804565,523.749084 902.806152,523.741272 893.501892,523.750977 
	C838.340576,523.808655 783.179199,523.870544 728.017883,523.930542 
	C725.889709,523.932861 723.761536,523.930847 720.406128,523.930847 
	C721.831421,513.307068 722.558777,503.202209 724.607544,493.372833 
	C738.162231,428.343933 774.741821,379.552216 830.794495,344.980499 
	C862.894836,325.181885 897.840576,312.727936 934.944214,305.824310 
	C969.270264,299.437469 1003.767639,296.930267 1038.585327,298.946930 
	C1090.534790,301.955780 1140.470581,312.824341 1186.480713,338.161560 
	C1217.043701,354.992218 1242.870117,377.154572 1261.632690,406.939758 
	C1271.588867,422.744965 1278.570923,439.791901 1282.293701,458.102386 
	C1287.604736,484.225464 1286.813232,510.726929 1285.742188,537.066406 
	C1283.608154,589.554138 1252.295410,623.260132 1210.601562,649.551514 
	C1193.451538,660.366028 1174.713867,667.828735 1155.230225,673.398682 
	C1153.706787,673.834229 1152.217773,674.389893 1149.717285,675.220398 
	C1160.060791,678.013855 1169.388306,680.234070 1178.531006,683.054077 
	C1217.603760,695.106018 1252.593384,713.988831 1279.888428,745.195679 
	C1303.402222,772.079346 1315.518433,803.480896 1315.847656,839.271545 
	C1316.019165,857.931458 1316.051880,876.593872 1315.974854,895.254456 
	C1315.752930,949.009705 1294.149658,993.433655 1256.026001,1030.250366 
	C1219.867798,1065.169189 1175.945679,1086.017578 1127.909180,1098.924316 
	C1104.257812,1105.279297 1080.188965,1109.333374 1055.737061,1111.010132 
	C1051.794678,1111.280518 1047.857422,1111.624634 1043.273193,1111.830566 
	C1042.085815,1111.818604 1041.543091,1111.910767 1041.000244,1112.003052 
	C1025.979370,1112.004028 1010.958435,1112.005005 995.291260,1111.880493 
	C994.094421,1111.815063 993.543823,1111.875000 992.993225,1111.935059 
	C983.905945,1111.243286 974.806519,1110.681885 965.733521,1109.836670 
	C929.275452,1106.439697 893.774475,1098.805298 859.937744,1084.585205 
	C776.459412,1049.502930 728.608826,986.454590 713.924744,897.589600 
	C713.196350,893.181580 712.656555,888.742371 711.951172,883.769470 
	C713.957581,883.628540 715.538086,883.420776 717.118652,883.420410 
	C774.089844,883.408691 831.061279,883.480042 888.031921,883.306519 
	C892.865845,883.291809 894.428467,884.647034 895.218079,889.442383 
	C902.477356,933.524902 933.504150,963.960083 978.853638,971.959961 
	C994.522095,974.723999 1010.271912,975.441223 1026.748535,974.148071 
	C1027.913452,974.094238 1028.450317,973.980530 1028.987061,973.866821 
z"/>
<path fill="#D6EDF4" opacity="1.000000" stroke="none" 
	d="
M989.197266,750.481873 
	C990.535889,750.218506 992.118774,750.251038 993.869385,750.569702 
	C992.505310,750.829773 990.973389,750.803772 989.197266,750.481873 
z"/>
<path fill="#7FC5DE" opacity="1.000000" stroke="none" 
	d="
M1041.181152,1112.135010 
	C1041.543091,1111.910767 1042.085815,1111.818604 1042.816406,1111.831421 
	C1042.456787,1112.046753 1041.909424,1112.156982 1041.181152,1112.135010 
z"/>
<path fill="#7FC5DE" opacity="1.000000" stroke="none" 
	d="
M993.164429,1112.079590 
	C993.543823,1111.875000 994.094421,1111.815063 994.822510,1111.876709 
	C994.445190,1112.073608 993.890381,1112.149048 993.164429,1112.079590 
z"/>
<path fill="#7FC5DE" opacity="1.000000" stroke="none" 
	d="
M1028.799072,973.756958 
	C1028.450317,973.980530 1027.913452,974.094238 1027.188354,974.104858 
	C1027.536987,973.883545 1028.074097,973.765320 1028.799072,973.756958 
z"/>
<path fill="#76C1DC" opacity="1.000000" stroke="none" 
	d="
M1121.860596,884.246704 
	C1121.889771,884.688354 1121.753174,885.380310 1121.391357,886.143921 
	C1121.342285,885.642700 1121.518677,885.069885 1121.860596,884.246704 
z"/>
<path fill="#FEFFFF" opacity="1.000000" stroke="none" 
	d="
M652.896423,1646.991089 
	C652.896423,1711.122437 652.896423,1775.253662 652.896423,1839.791992 
	C631.470154,1839.791992 610.752869,1839.791992 589.651367,1839.791992 
	C589.651367,1741.934814 589.651367,1644.044312 589.651367,1545.746582 
	C620.221436,1545.746582 650.795959,1545.746582 682.132935,1545.746582 
	C701.740845,1623.885254 721.426758,1702.334839 741.488586,1782.282593 
	C744.886780,1769.622681 747.923096,1758.449219 750.884399,1747.255981 
	C768.259399,1681.579468 785.651306,1615.907471 802.891296,1550.195435 
	C803.877136,1546.437744 805.355957,1545.220093 809.260437,1545.246826 
	C835.589355,1545.426147 861.920105,1545.335938 888.250244,1545.350342 
	C889.874207,1545.351196 891.498047,1545.497925 893.484497,1545.594360 
	C893.484497,1643.816528 893.484497,1741.699951 893.484497,1839.891968 
	C870.304382,1839.891968 847.424011,1839.891968 824.191650,1839.891968 
	C823.227478,1777.859375 824.850281,1716.094360 823.228027,1654.371826 
	C822.771057,1654.353516 822.314026,1654.335205 821.856995,1654.316772 
	C819.623291,1663.552612 817.506104,1672.818359 815.136597,1682.019043 
	C801.930481,1733.297607 788.631958,1784.552368 775.487732,1835.846802 
	C774.619019,1839.236816 773.179260,1840.310181 769.692993,1840.281494 
	C749.530212,1840.114746 729.365173,1840.172974 709.201172,1840.231812 
	C706.488586,1840.239746 704.710449,1840.009277 703.834778,1836.682861 
	C698.083679,1814.836304 691.888916,1793.106201 686.163757,1771.253052 
	C677.568909,1738.446777 669.250366,1705.568115 660.792664,1672.725830 
	C658.642944,1664.378418 656.410828,1656.052368 654.181458,1647.043457 
	C653.721008,1645.846680 653.295715,1645.322754 652.870422,1644.798828 
	C652.879089,1645.529541 652.887756,1646.260376 652.896423,1646.991089 
z"/>
<path fill="#FEFEFF" opacity="1.000000" stroke="none" 
	d="
M1114.216919,1546.765625 
	C1118.922119,1562.456909 1123.558350,1578.169434 1128.348022,1593.834839 
	C1136.560547,1620.694336 1144.956421,1647.497681 1153.115845,1674.373169 
	C1164.363037,1711.418701 1175.469238,1748.507202 1186.620483,1785.581787 
	C1191.397217,1801.462769 1196.149292,1817.351318 1200.875488,1833.247559 
	C1201.486694,1835.302856 1201.875977,1837.423950 1202.457397,1839.894043 
	C1177.508789,1839.894043 1152.949463,1839.894043 1128.093994,1839.894043 
	C1123.464966,1823.401001 1118.879395,1806.947144 1114.215088,1790.515625 
	C1112.856445,1785.729370 1112.636353,1779.214233 1109.408813,1776.759644 
	C1106.187378,1774.309570 1099.850830,1775.836670 1094.879517,1775.826538 
	C1072.056641,1775.780273 1049.232910,1775.915405 1026.411987,1775.702393 
	C1022.448242,1775.665527 1020.985474,1776.990112 1020.083130,1780.671631 
	C1015.535400,1799.224854 1010.801331,1817.733643 1005.904358,1836.197510 
	C1005.490173,1837.759277 1003.404480,1840.014160 1002.075745,1840.027588 
	C978.941345,1840.262329 955.803955,1840.197021 931.952820,1840.197021 
	C932.467834,1838.055908 932.808411,1836.366821 933.280701,1834.715454 
	C960.375305,1739.970703 987.496582,1645.233765 1014.521118,1550.469238 
	C1015.499329,1547.039062 1016.509583,1545.186768 1020.702576,1545.227173 
	C1044.676880,1545.458740 1068.654541,1545.307251 1092.630981,1545.363403 
	C1098.122681,1545.376343 1103.613770,1545.693848 1109.863770,1546.087280 
	C1111.820557,1546.457397 1113.018677,1546.611572 1114.216919,1546.765625 
M1044.789185,1679.163208 
	C1041.567505,1692.913452 1038.345947,1706.663696 1035.046021,1720.747803 
	C1055.358032,1720.747803 1075.208374,1720.747803 1095.709351,1720.747803 
	C1085.559814,1678.815430 1075.519653,1637.334473 1065.479492,1595.853638 
	C1061.140503,1609.468994 1057.961548,1623.064819 1054.764648,1636.656616 
	C1051.496216,1650.553589 1048.210449,1664.446289 1044.789185,1679.163208 
z"/>
<path fill="#FEFEFE" opacity="1.000000" stroke="none" 
	d="
M1275.059570,1613.990112 
	C1261.451660,1591.286987 1248.019531,1568.902588 1234.054565,1545.630371 
	C1236.537598,1545.501465 1238.085571,1545.352051 1239.633545,1545.351074 
	C1262.962524,1545.335938 1286.292236,1545.429688 1309.619751,1545.246460 
	C1313.217651,1545.218262 1314.888184,1546.578125 1316.458496,1549.569946 
	C1331.165283,1577.588745 1346.013550,1605.533447 1360.825928,1633.496826 
	C1361.665039,1635.080811 1362.548340,1636.641479 1363.877563,1639.062744 
	C1365.497803,1636.354126 1366.811401,1634.313477 1367.974365,1632.190308 
	C1382.616089,1605.458008 1397.356323,1578.778076 1411.750610,1551.912964 
	C1414.337524,1547.084961 1417.052490,1545.056885 1422.805542,1545.171021 
	C1444.126587,1545.594116 1465.461060,1545.338867 1486.790405,1545.338501 
	C1488.557373,1545.338501 1490.324219,1545.338623 1493.165039,1545.338623 
	C1491.349609,1548.297363 1490.104492,1550.377197 1488.811279,1552.426636 
	C1463.212280,1593.002808 1437.645142,1633.599487 1411.927490,1674.100464 
	C1410.029175,1677.089722 1410.114014,1679.184326 1411.822266,1682.149414 
	C1440.673950,1732.232178 1469.414551,1782.378906 1498.176514,1832.513306 
	C1499.477783,1834.781616 1500.749390,1837.067017 1502.136963,1839.525391 
	C1501.228882,1839.848267 1500.803711,1840.131836 1500.378418,1840.131714 
	C1474.885132,1840.122559 1449.391602,1840.028320 1423.898926,1840.135376 
	C1420.560303,1840.149414 1418.909058,1838.947876 1417.443237,1836.053955 
	C1401.039551,1803.664795 1384.517700,1771.335449 1367.980713,1739.014160 
	C1366.480835,1736.082642 1364.656494,1733.317261 1362.625488,1729.867798 
	C1361.529785,1731.596436 1360.770996,1732.617310 1360.192749,1733.731934 
	C1342.477295,1767.881836 1324.769897,1802.035645 1307.100708,1836.209595 
	C1305.912598,1838.507446 1304.919922,1840.299683 1301.677979,1840.280151 
	C1276.850098,1840.130249 1252.021118,1840.195557 1227.192383,1840.179443 
	C1226.554443,1840.179077 1225.916626,1840.013672 1224.505859,1839.818237 
	C1225.640991,1837.807983 1226.542480,1836.127808 1227.519775,1834.493042 
	C1256.497925,1786.025879 1285.435669,1737.534424 1314.562256,1689.156738 
	C1316.788086,1685.459839 1316.620972,1682.962646 1314.425903,1679.376953 
	C1301.206787,1657.782837 1288.268066,1636.017090 1275.059570,1613.990112 
z"/>
<path fill="#ADC1CB" opacity="1.000000" stroke="none" 
	d="
M1114.096680,1546.490234 
	C1113.018677,1546.611572 1111.820557,1546.457397 1110.308105,1546.126953 
	C1111.321289,1546.038574 1112.648804,1546.126709 1114.096680,1546.490234 
z"/>
<path fill="#A8BEC7" opacity="1.000000" stroke="none" 
	d="
M653.179626,1646.943604 
	C652.887756,1646.260376 652.879089,1645.529541 652.870422,1644.798828 
	C653.295715,1645.322754 653.721008,1645.846680 654.089722,1646.666748 
	C653.843140,1646.940552 653.653015,1646.918335 653.179626,1646.943604 
z"/>
<path fill="#386A80" opacity="1.000000" stroke="none" 
	d="
M1044.860840,1678.752075 
	C1048.210449,1664.446289 1051.496216,1650.553589 1054.764648,1636.656616 
	C1057.961548,1623.064819 1061.140503,1609.468994 1065.479492,1595.853638 
	C1075.519653,1637.334473 1085.559814,1678.815430 1095.709351,1720.747803 
	C1075.208374,1720.747803 1055.358032,1720.747803 1035.046021,1720.747803 
	C1038.345947,1706.663696 1041.567505,1692.913452 1044.860840,1678.752075 
z"/>
</svg>