<?xml version="1.0" encoding="UTF-8"?>
<svg id="Calque_1" data-name="Calque 1" xmlns="http://www.w3.org/2000/svg" viewBox="0 0 510.34 542.67">
  <defs>
    <style>
      .cls-1 {
        fill: #e6204a;
      }

      .cls-1, .cls-2 {
        stroke-width: 0px;
      }

      .cls-2 {
        fill: #212121;
      }
    </style>
  </defs>
  <polygon class="cls-1" points="247.59 15.36 337.35 26.98 409.91 60.01 466.66 110.71 498.28 171.17 498.28 245.59 469.45 351.17 470.84 376.29 456.42 387.92 431.77 401.87 414.1 431.75 400.15 451.64 378.28 456.75 354.1 470.71 342.47 480.94 315.03 480.94 295.03 492.57 280.61 510.24 264.33 502.8 255.17 493.03 206.66 531.17 176.89 478.15 155.49 497.68 84.33 425.12 71.31 395.82 24.13 392.1 15.49 353.96 29.45 333.5 15.49 276.75 21.54 185.59 47.59 103.73 92.24 63.26 167.59 27.92 247.59 15.36"/>
  <path class="cls-2" d="M487.19,336.9c14.03,4.29,18.7,10.81,17.81,27.18-1.74,31.79-21.57,46.31-54.19,41.9-6.19-.84-9.13.14-12.55,4.97-10.21,14.45-20.84,28.62-31.52,42.73-4.37,5.77-9.04,7.56-17.62,8.37-11.21,1.06-22.37,10.96-31.85,19.05-6.73,5.74-10.65,14.77-16.7,23.6-4.57-7.77-8.38-14.26-12.13-20.65-26.42,4.48-38.86,23.49-48.69,46.73-8.96-10.63-16.91-20.06-25.13-29.81-16.07,14.04-31.53,27.54-47.73,41.7-9.11-15.6-19.59-33.54-30.83-52.78-7.68,7.08-14.29,13.18-19.12,17.63-22.97-22.88-45.85-45.09-67.94-68.05-6.78-7.05-11.46-16.14-17.01-24.35-4.72-6.99-10.08-9.47-19.43-8.48-37.71,4.02-57.07-17.86-51.47-53.48,1.08-6.86,9.12-12.62,15.14-20.42-20-51.79-20.83-108.12-6.13-164.74C31.57,85.17,87.78,36.2,167.48,12.69c110.53-32.6,206.38-.37,289.42,73.36,47.55,42.22,59.32,99.95,50.98,161.08-4.1,30.03-13.5,59.34-20.69,89.77ZM464.48,362.69c-1.22-7.74-4.1-14.11-2.74-19.4,7.77-30.2,18.11-59.8,24.66-90.23,14.16-65.81-4.67-122.78-55.12-166.46-50.13-43.4-110.81-63.19-176.86-65.38-48.97-1.63-93.15,15.69-135.8,37.49-31.19,15.95-54.47,39.94-69.6,71.6-23.96,50.12-27.65,103.51-23.32,157.65,1.13,14.19,6.22,29.08,13.24,41.55,11.56,20.54,12.85,19.82-9.45,29.37,6.65,5.69,23.95,4.86,11.91,21.1,3.82.67,6.3,1.58,8.73,1.46,23.13-1.2,34.71,11.56,41.13,32.17,1.81,5.83,6.68,11.3,11.41,15.53,19.32,17.26,41.7,31.53,53.12,56.26.18.39,1.24.36,2.72.75,2.6-3.01,5.96-6.01,8.2-9.69,4.52-7.42,10.29-7.56,15.05-1.69,7.32,9.04,13.69,18.91,19.87,28.8,3.17,5.06,5.07,10.91,7.92,17.25,2.63-2.17,4.01-3.29,5.36-4.44,11.76-10.02,23.25-20.37,35.37-29.93,6.01-4.74,12.04-4.26,16.51,3.44,2.62,4.5,6.55,8.23,10.73,13.32,10.53-26.95,33.86-33.11,56.1-34.99,11.49-.97,18.45-4.96,26.02-10.9,7.24-5.68,14.08-11.9,20.84-18.16,6.01-5.56,10.92-5.71,15.74,5.41,13.7-19.16,26.27-36.3,38.32-53.8,4.51-6.55,8.57-12.27,18.8-5.89-2.46-13.18,3.55-19.65,11.13-22.22Z"/>
  <path class="cls-2" d="M257.41,421.81c-10.61,3.94-18.77,9.37-27.01,9.49-14.11.2-21.68-11.09-21.3-28.03.21-9.56,1.67-19.13,1.42-28.66-.58-21.97-11.23-34.47-32.86-32.48-50.69,4.67-72.66-53.98-50.23-95.66,2.51-4.66,8.15-8.68,13.25-10.7,23.67-9.4,48.17-8.22,71.17.75,9.26,3.61,16.69,14.06,22.93,22.84,17.52,24.62,23.04,25.61,38.2,0,16.79-28.37,43.16-31.33,70.92-28.94,36.87,3.19,48.93,18.99,46.78,56.41-1.94,33.89-22.45,53.76-56.45,54.68-25.31.69-35.03,10.67-34.98,36.23.02,8.84.55,17.68.76,26.52.26,11.04-2.44,20.93-13.61,25.44-11.12,4.49-20.93,1.45-28.79-7.67-.69-.8-1.59-1.41-.22-.22ZM287.77,307.74c13.06,9.79,26.52,16.04,42.39,10.46,15.09-5.3,23.7-17.03,29.6-31.52-38.37-13.21-48.21-10.34-71.99,21.05ZM149.73,284.57c11.66,36.33,46.97,46.45,71.22,22.32-9.65-9.24-12.78-26.46-29.91-26.34-13.62.1-27.22,2.55-41.31,4.01Z"/>
</svg>