<?xml version="1.0" encoding="UTF-8"?>
<svg width="512px" height="512px" viewBox="0 0 512 512" xmlns="http://www.w3.org/2000/svg">
  <g>
    <path fill="#00A88E" d="M252.667 93.889c-87.111 0-158.333 71.222-158.333 158.333 0 87.112 71.222 158.334 158.333 158.334 87.112 0 158.334-71.222 158.334-158.334 0-87.111-71.222-158.333-158.334-158.333zm-98.889 202.667v-90.223l74.889 90.223H153.778zm68-90.223l64.889 90.223h-64.889v-90.223zm71.778 0v90.223h-1.334L227.333 206.333h65.889zm32 90.223h-25.334v-90.223h25.334v90.223z"/>
    <path fill="#00A88E" d="M256 75.333c-97.055 0-176 78.945-176 176s78.945 176 176 176 176-78.945 176-176-78.945-176-176-176zm0 325.334c-82.059 0-149.333-67.275-149.333-149.334S173.941 102 256 102s149.333 67.275 149.333 149.333S338.059 400.667 256 400.667z"/>
  </g>
</svg> 