<?xml version="1.0" encoding="UTF-8"?>
<svg width="512px" height="512px" viewBox="0 0 512 512" xmlns="http://www.w3.org/2000/svg">
  <g>
    <path fill="#000000" d="M401.18 220.52l-55.38-95.91 55.38-95.91-106.5 34.72-102.15-34.72 46.83 95.91-46.83 95.91 102.15-34.72 106.5 34.72zm-47.42 27.4l83.87 145.3-138.56-36.33 19.73 123.41-83.87-145.3-83.87 145.3 19.73-123.41-138.56 36.33 83.87-145.3-83.87-145.3 138.56 36.33-19.73-123.41 83.87 145.3 83.87-145.3-19.73 123.41 138.56-36.33-83.87 145.3z"/>
    <path fill="#110B09" d="M336.93 121.04L256 238.17l-80.93-117.13-58.7 117.13 58.7 117.13L256 238.17l80.93 117.13 58.7-117.13-58.7-117.13z"/>
  </g>
</svg> 